# xmcd
# 
# Track frame offsets:
#     150
#     21086
#     42547
#     63484
# 
# Disc length: 1130
# 
# Revision: 0
# Processed by: cddbd v1.5.2PL0 Copyright (c) Steve Scherf et al.
# Submitted via: fre:ac v1.0.31
# 
DISCID=31046804
DTITLE=川田まみ - Contrail〜軌跡〜
DYEAR=2004
DGENRE=JPop
TTITLE0=Contrail〜軌跡〜
TTITLE1=Halfway
TTITLE2=Contrail〜軌跡〜 -instrumental
TTITLE3=Halfway -instrumental-
EXTD=YEAR: 2004
EXTT0=
EXTT1=
EXTT2=
EXTT3=
PLAYORDER=
